<svg width="128" height="128" viewBox="0 0 128 128" fill="none" xmlns="http://www.w3.org/2000/svg">
  <defs>
    <linearGradient id="grad1" x1="0%" y1="0%" x2="100%" y2="100%">
      <stop offset="0%" style="stop-color:#667eea;stop-opacity:1" />
      <stop offset="100%" style="stop-color:#764ba2;stop-opacity:1" />
    </linearGradient>
    <linearGradient id="grad2" x1="0%" y1="0%" x2="100%" y2="100%">
      <stop offset="0%" style="stop-color:#ffffff;stop-opacity:0.95" />
      <stop offset="100%" style="stop-color:#f8f9fa;stop-opacity:0.95" />
    </linearGradient>
    <linearGradient id="grad3" x1="0%" y1="0%" x2="100%" y2="100%">
      <stop offset="0%" style="stop-color:#e74c3c;stop-opacity:1" />
      <stop offset="100%" style="stop-color:#c0392b;stop-opacity:1" />
    </linearGradient>
    <radialGradient id="radial1" cx="50%" cy="30%" r="70%">
      <stop offset="0%" style="stop-color:#ffffff;stop-opacity:0.3" />
      <stop offset="100%" style="stop-color:#ffffff;stop-opacity:0" />
    </radialGradient>
  </defs>
  
  <!-- 背景圆形带阴影 -->
  <circle cx="64" cy="68" r="58" fill="#000000" opacity="0.1"/>
  <circle cx="64" cy="64" r="58" fill="url(#grad1)" stroke="#ffffff" stroke-width="4"/>
  <circle cx="64" cy="64" r="58" fill="url(#radial1)"/>
  
  <!-- 相机主体阴影 -->
  <rect x="18" y="42" width="92" height="48" rx="8" fill="#000000" opacity="0.1"/>
  
  <!-- 相机主体 -->
  <rect x="16" y="40" width="92" height="48" rx="8" fill="#2c3e50"/>
  <rect x="20" y="44" width="84" height="40" rx="6" fill="url(#grad2)"/>
  
  <!-- 相机顶部细节 -->
  <rect x="24" y="36" width="16" height="8" rx="2" fill="#34495e"/>
  <rect x="26" y="37" width="12" height="6" rx="1" fill="url(#grad2)" opacity="0.8"/>
  
  <!-- 镜头外圈阴影 -->
  <circle cx="64" cy="66" r="20" fill="#000000" opacity="0.1"/>
  
  <!-- 镜头外圈 -->
  <circle cx="64" cy="64" r="20" fill="#34495e"/>
  <circle cx="64" cy="64" r="18" fill="url(#grad2)"/>
  
  <!-- 镜头中圈 -->
  <circle cx="64" cy="64" r="14" fill="#2c3e50"/>
  <circle cx="64" cy="64" r="12" fill="url(#grad1)"/>
  
  <!-- 镜头内圈 -->
  <circle cx="64" cy="64" r="8" fill="#1a252f"/>
  <circle cx="64" cy="64" r="6" fill="#000000" opacity="0.8"/>
  
  <!-- 镜头反光效果 -->
  <ellipse cx="58" cy="58" rx="6" ry="4" fill="#ffffff" opacity="0.4" transform="rotate(-30 58 58)"/>
  <ellipse cx="60" cy="60" rx="3" ry="2" fill="#ffffff" opacity="0.6" transform="rotate(-30 60 60)"/>
  
  <!-- 闪光灯 -->
  <circle cx="88" cy="48" r="4" fill="#f39c12"/>
  <circle cx="88" cy="48" r="3" fill="#ffffff" opacity="0.9"/>
  <circle cx="86" cy="46" r="1" fill="#ffffff" opacity="0.7"/>
  
  <!-- 取景器 -->
  <rect x="48" y="20" width="32" height="16" rx="4" fill="#2c3e50"/>
  <rect x="50" y="22" width="28" height="12" rx="3" fill="url(#grad2)" opacity="0.8"/>
  <rect x="52" y="24" width="24" height="8" rx="2" fill="#34495e" opacity="0.6"/>
  
  <!-- 相机按钮 -->
  <circle cx="96" cy="56" r="3" fill="#95a5a6"/>
  <circle cx="96" cy="56" r="2" fill="url(#grad2)"/>
  
  <!-- 截图选择框效果 -->
  <rect x="28" y="52" width="72" height="24" rx="4" fill="none" stroke="url(#grad3)" stroke-width="3" opacity="0.9" stroke-dasharray="6,4"/>
  
  <!-- 选择角标 -->
  <path d="M28 52 L36 52 L36 60" fill="none" stroke="url(#grad3)" stroke-width="4" stroke-linecap="round"/>
  <path d="M100 52 L92 52 L92 60" fill="none" stroke="url(#grad3)" stroke-width="4" stroke-linecap="round"/>
  <path d="M28 76 L36 76 L36 68" fill="none" stroke="url(#grad3)" stroke-width="4" stroke-linecap="round"/>
  <path d="M100 76 L92 76 L92 68" fill="none" stroke="url(#grad3)" stroke-width="4" stroke-linecap="round"/>
  
  <!-- 截图图标 -->
  <rect x="32" y="56" width="8" height="6" rx="1" fill="url(#grad3)" opacity="0.7"/>
  <path d="M34 58 L36 60 L38 58" fill="none" stroke="#ffffff" stroke-width="1" stroke-linecap="round"/>
  
  <!-- 光效 -->
  <circle cx="64" cy="64" r="58" fill="none" stroke="#ffffff" stroke-width="1" opacity="0.2"/>
  <circle cx="64" cy="64" r="50" fill="none" stroke="#ffffff" stroke-width="1" opacity="0.1"/>
</svg>